# xmcd
#
# Track frame offsets:
#	150
#	19588
#	43290
#	73490
#	99817
#	124724
#	156232
#	177234
#	197626
#	220626
#	247531
#	273073
#
# Disc length: 3905
#
# Revision: 1
# Processed by: cddbd v1.5.1PL0 Copyright (c) Steve Scherf et al.
# Submitted via: CDex 1.50Beta7
# Normalized: r0:TDELIM( - )
#
DISCID=9b0f3f0c
DTITLE=Phono Jazz Various - Jazz Compilation
DYEAR=2003
DGENRE=Jazz
TTITLE0=Two Basses - Trubbel
TTITLE1=A Time For Love - He Was Too Good To Me
TTITLE2=Day Dream - The Touch Of Your Lips
TTITLE3=Mingus By Five - Goodbye Pork Pie Hat
TTITLE4=Back From Where We Came - Blind Faith
TTITLE5=Jonas Knutsson Quartet - Fly Away
TTITLE6=Song For A Willow - Isn't That Thing To Do
TTITLE7=Close - Here There And Everywhere
TTITLE8=Skiss - Teddy The Toad
TTITLE9=Fine Together - I'll Close My Eyes
TTITLE10=Summer Night - It Never Entered My Mind
TTITLE11=Yiddish 'n Jazz - Little Boots
EXTD=YEAR: 2003
EXTT0=
EXTT1=
EXTT2=
EXTT3=
EXTT4=
EXTT5=
EXTT6=
EXTT7=
EXTT8=
EXTT9=
EXTT10=
EXTT11=
PLAYORDER=
